<svg width="518" height="444" viewBox="0 0 518 444" fill="none" xmlns="http://www.w3.org/2000/svg">
<path d="M261.112 412.288H267.164V420.61H274.822L264.591 438.332L263.982 438.685L261.222 443.468L258.46 441.873L255.95 443.322L253.758 439.524H261.112V420.61H256.068V405.479H261.112V412.288ZM242.954 420.812L242.837 420.61H242.954V420.812ZM240.937 417.317L231.771 401.444H240.937V417.317ZM351.265 288.21H333.743V307.125H340.344L338.888 309.646H326.934V329.822H327.239L318.504 344.953H293.393V360.085H309.768L298.702 379.251H293.393V388.446L283.559 405.479H269.182V396.4H267.165V390.348H261.112V382.782H256.068V380.512H261.112V355.293H265.399V349.997H271.199V341.927H265.399V339.909H280.783V329.822H261.112V339.909H255.312V341.927H253.042V360.085H243.711V349.997H250.016V339.909H253.042V325.03H261.112V316.96H250.016V309.646H267.165V314.69H293.393V309.646H296.166V299.559H297.428V307.125H311.55V319.734H321.638V304.351H315.585V288.21H308.523V284.428H319.62V274.144H359.386L351.265 288.21ZM220.112 109.288H226.164V117.61H235.743V131.125H238.27V133.646H228.934V153.822H232.717V169.71H221.62V168.953H195.393V184.085H213.55V194.172H228.934V187.867H233.022V198.486H248.153V172.258H247.848V168.953H262.979V168.223H300.609V141.995H285.479V153.092H274.382V137.96H300.609V136.524H310.9V155.439H322.803V164.188H337.934V138.69H341.663V137.96H362.145V147.039H364.161V153.092H370.214V160.657H375.258V162.927H370.214V188.146H365.927V193.442H360.127V201.512H365.927V203.529H350.543V213.617H370.214V203.529H376.015V201.512H378.284V183.354H387.615V193.442H381.311V203.529H378.284V218.409H370.214V226.479H381.311V233.793H364.161V228.749H337.934V233.793H335.159V243.88H333.898V236.314H319.776V223.705H309.688V239.089H315.741V255.229H322.803V259.012H311.706V269.296H272.059V263.524H259.25V259.012H254.657V245.367H247.848V244.61H274.076V224.714H285.479V213.617H289.009V233.793H304.393V213.617H300.609V197.729H311.706V198.486H337.934V183.354H319.776V173.267H304.393V179.571H300.304V168.953H285.172V195.181H285.479V198.486H270.347V199.216H232.717V225.444H247.848V214.348H258.944V229.479H232.717V245.367H217.585V263.524H233.022V274.144H253.9V277.114H253.042V279.384H252.79V277.114H236.901V285.184H228.832V288.21H225.553V279.384H229.336V264H219.248V270.053H214.709V269.296H188.481V284.428H196.551V285.184H188.481V301.072H196.551V299.559H204.621V284.428H206.639V288.21H224.04V289.472H219.248V299.559H210.674V307.629H220.762V299.559H224.04V306.368H237.154V309.143H250.016V309.646H234.632V319.734H239.928V321.752H236.901V326.039H206.639V344.953H220.762V348.736H224.797V362.103H220.762V370.172H230.849V364.624H236.901V363.867H242.954V364.12H240.937V375.216H225.806V391.11L224.797 389.363V382.782H220.997L210.514 364.624H220.509V356.554H219.248V349.997H204.621V348.736H201.341L199.302 345.205H203.864V329.822H198.568V314.438H196.551V309.646H186.464V316.96H182.995L152.145 263.524H163.112V244.61H158.068V229.479H163.112V236.288H169.164V244.61H181.27V263.524H199.428V254.977H206.795V243.88H221.926V217.652H210.523V203.251H195.393V228.749H191.663V229.479H171.182V220.4H169.165V214.348H163.112V206.782H158.068V204.512H163.112V179.293H163.9V185.439H182.059V166.524H173.199V165.927H167.399V163.909H182.783V153.822H164.657V148.367H163.112V147.61H184.076V138.69H195.393V133.646H198.166V123.559H199.428V131.125H201.954V136.524H213.55V143.734H223.638V128.351H220.112V117.61H217.585V112.21H215.068V108.428H220.112V109.288ZM193.777 335.636L190.421 329.822H193.777V335.636ZM188.481 326.463L187.654 325.03H188.481V326.463ZM244.972 289.472H253.042V285.184H261.112V299.559H250.016V301.072H242.954V299.559H244.972V289.472H242.954V288.21H236.901V285.184H244.972V289.472ZM293.393 299.559H282.296V287.454H293.393V299.559ZM349.03 255.985H337.934V243.88H349.03V255.985ZM370.214 255.388V243.88H376.858L370.214 255.388ZM279.426 255.229H297.583V236.314H279.426V255.229ZM142.937 244.61H144.954V251.069L130.159 225.444H142.937V244.61ZM382.392 234.297H381.311V233.793H382.683L382.392 234.297ZM108.639 168.953H122.762V172.736H126.797V186.103H122.762V194.172H132.849V188.624H138.901V187.867H144.954V188.12H142.937V199.216H127.806V221.367L126.797 219.62V206.782H119.385L116.709 202.147V199.216H115.016L108.901 188.624H122.509V180.554H121.248V173.997H106.621V172.736H99.7285L97.6895 169.205H105.864V166.524H108.639V168.953ZM421.428 0.125H435.55V12.7344H445.638V0H457.743V0.125H475.9V0H517.258L516.832 0.735352L517.035 1.08691L478.278 68.2158H454.717V94.4443H463.136L460.806 98.4795H454.717V109.025L451.633 114.367H439.585V132.524H441.149L429.275 153.092H424.688V141.743H406.529V160.657H416.617V168.223H420.539L414.423 178.815H410.816V185.062L406.529 192.487V181.337H410.564V173.267H400.477V178.815H394.425V179.571H388.372V179.319H390.39V168.223H405.521V141.995H390.39V122.829H388.372V105.288H391.164V113.61H403.27V132.524H421.428V113.61H417.393V98.4795H393.182V89.4004H391.165V83.3477H385.112V75.7822H380.068V73.5117H385.112V48.293H389.399V42.9971H395.199V34.9268H389.399V32.9092H404.783V22.8223H385.112V32.9092H379.312V34.9268H377.042V53.085H367.711V42.9971H374.016V32.9092H377.042V22.7871H383.531V18.0303H385.112V11.6904H398.663V7.69043H417.393V2.64648H420.166V0H421.428V0.125ZM155.042 184.085H145.711V173.997H152.016V166.524H155.042V184.085ZM90.4814 153.822H91.2695V158.085L86.042 149.03H90.4814V153.822ZM261.268 103.914H274.076V108.428H278.669V118.367H274.585V122.829H259.25V142.726H247.848V153.822H244.317V136.524H256.428V117.61H253.9V112.21H252.393V102.479H261.268V103.914ZM169.674 4.62891H179.762V0H183.04V3.36816H184.076V11.4277H193.632V16.7344H198.928V18.752H195.901V23.0391H165.639V41.9531H179.762V45.7363H183.797V59.1025H179.762V67.1719H189.849V61.624H195.901V60.8672H201.954V61.1201H199.937V71.9531H195.172V72.2158H184.806V93.2959H183.797V79.7822H173.709V72.2158H157.848V71.9531H172.979V61.624H179.509V53.5537H178.248V46.9971H172.979V45.7256H157.848V45.7363H155.551V49.0146H154.317V42.2051H162.864V34.125H163.9V15.21H157.568V11.4385H155.551V6.64648H145.464V13.96H139.663V22.0303H145.743V34.125H152.777V36.6465H138.934V56.8223H142.717V72.71H131.62V71.9531H105.393V87.085H123.55V88H121.248V94.0527H116.709V93.2959H90.4814V108.428H98.5508V109.184H90.4814V125.072H98.5508V123.559H105.393V132.479H120.523V131.629H122.762V123.559H126.04V130.368H139.154V133.143H142.717V133.646H136.632V143.734H141.928V145.752H138.901V148.367H127.585V150.039H109.428V147.61H105.393V132.479H81.1816V123.4H79.165V117.348H73.1123V109.782H68.0684V107.512H73.1123V82.293H77.3994V76.9971H83.1992V68.9268H77.3994V66.9092H92.7832V56.8223H73.1123V66.9092H67.3115V68.9268H65.042V87.085H55.7109V76.9971H62.0156V66.9092H65.042V52.0303H73.1123V43.96H62.0156V36.6465H79.165V41.6904H105.393V36.6465H108.166V26.5586H109.428V34.125H123.55V46.7344H133.638V31.3506H127.585V15.21H120.523V11.4277H131.62V0H169.674V4.62891ZM375.258 137.96H370.214V132.524H375.258V137.96ZM256.428 4.125H270.55V16.7344H280.638V1.35059H274.585V0H292.743V4.125H310.464V9.95996H304.663V18.0303H304.848V26.8223H301.317V6.64648H285.934V26.8223H289.717V42.71H278.62V41.9531H252.393V57.085H270.55V67.1719H285.934V60.8672H293.499V53.0498H304.848V41.9531H319.979V38.2051H327.864V22.8223H322.568V7.43848H320.551V2.64648H310.9V0H334.674V0.628906H344.762V0H361.154V2.14258H368.4V2.64648H358.632V12.7344H363.928V14.752H360.901V19.0391H330.639V37.9531H344.762V41.7363H348.797V41.9531H342.172V42.9971H328.621V41.7363H320.551V45.0146H312.481V63.1719H330.639V57.624H342.172V68.1807H357.304V57.624H360.901V56.8672H366.954V57.1201H364.937V68.2158H349.806V94.4443H364.937V113.61H366.954V131.151H364.161V122.829H352.057V103.914H333.898V112.463H331.076V94.6963H348.797V75.7822H338.709V68.2158H312.481V72.2158H289.717V93.2959H279.426V85H267.523V76.251H252.393V102.479H228.182V93.4004H226.165V87.3477H220.112V79.7822H215.068V77.5117H220.112V52.293H221.4V52.7871H236.531V41.6904H251.663V15.4629H236.531V26.5586H221.4V26.8223H220.112V36.9092H214.312V38.9268H212.042V57.085H202.711V46.9971H209.016V36.9092H212.042V22.0303H220.112V13.96H209.016V11.4277H210.304V6.64648H226.165V11.6904H252.393V6.64648H255.166V0H256.428V4.125ZM126.04 113.472H121.248V123.559H120.523V112.21H126.04V113.472ZM163.112 123.559H157.848V117.348H163.112V123.559ZM195.393 123.559H184.296V111.454H195.393V123.559ZM326.531 123.559H311.657V122.072H315.741V117.61H326.531V123.559ZM147.481 87.3477H165.639V98.6963H169.164V101.114H155.042V102.216H154.79V101.114H138.901V109.184H130.832V112.21H127.553V103.384H131.336V97.1719H138.934V90.8672H146.499V83.0498H147.481V87.3477ZM142.717 112.21H138.901V109.184H142.717V112.21ZM385.112 103.914H380.068V98.4795H385.112V103.914ZM315.944 102.479H300.304V98.4443H304.848V87.3477H315.944V102.479ZM417.393 98.4795H432.523V72.251H417.393V98.4795ZM54.9541 91.1201H52.9365V91.6885L52.4619 90.8672H54.9541V91.1201ZM450.934 22.8223H454.717V38.71H443.62V37.9531H417.393V53.085H435.55V63.1719H450.934V56.8672H458.499V49.0498H469.848V37.9531H484.979V11.7256H469.848V22.8223H466.317V2.64648H450.934V22.8223ZM18.6387 15.21H36.04V16.4717H31.248V26.5586H22.6738V34.6289H32.7617V26.5586H36.04V33.3682H49.1543V36.1426H62.0156V36.6465H46.6318V46.7344H51.9277V48.752H48.9014V53.0391H30.6211L15.333 26.5586H16.6211V11.4277H18.6387V15.21ZM56.9717 16.4717H65.042V12.1836H73.1123V26.5586H62.0156V28.0723H54.9541V26.5586H56.9717V16.4717H54.9541V15.21H48.9014V12.1836H56.9717V16.4717ZM105.393 26.5586H94.2959V14.4541H105.393V26.5586ZM79.1641 4.11426H65.042V6.38379H64.79V4.11426H48.9014V12.1836H40.832V15.21H37.5527V6.38379H41.3359V0H79.1641V4.11426ZM8.55078 12.1836H7.03418L6.59766 11.4277H8.55078V12.1836ZM0.481445 0.833008L0 0H0.481445V0.833008Z" fill="#DCDCDC"/>
</svg>
